<svg xmlns="http://www.w3.org/2000/svg" xmlns:xlink="http://www.w3.org/1999/xlink" width="40" zoomAndPan="magnify" viewBox="0 0 30 30.000001" height="40" preserveAspectRatio="xMidYMid meet" version="1.0"><defs><clipPath id="86b9eae06a"><path d="M 6.382812 17 L 23.800781 17 L 23.800781 29.03125 L 6.382812 29.03125 Z M 6.382812 17 " clip-rule="nonzero"/></clipPath></defs><path fill="#09643b" d="M 8.898438 16.105469 L 21.554688 16.105469 L 22.460938 5.558594 C 22.597656 4.058594 22.121094 2.675781 21.148438 1.609375 C 20.171875 0.542969 18.789062 0 17.269531 0 L 13.183594 0 C 11.664062 0 10.304688 0.476562 9.308594 1.542969 C 8.308594 2.609375 7.855469 4.105469 7.992188 5.601562 Z M 8.898438 16.105469 " fill-opacity="1" fill-rule="nonzero"/><g clip-path="url(#86b9eae06a)"><path fill="#09643b" d="M 21.804688 17.011719 L 8.648438 17.011719 C 7.515625 17.011719 6.382812 17.691406 6.382812 18.824219 L 6.382812 20.1875 C 6.382812 21.230469 7.289062 22.089844 8.195312 22.207031 L 8.195312 28.578125 C 8.195312 28.714844 8.535156 29.03125 8.648438 29.03125 L 9.554688 29.03125 C 9.691406 29.03125 9.554688 28.714844 9.554688 28.578125 L 9.554688 22.453125 L 20.445312 22.453125 L 20.445312 28.578125 C 20.445312 28.714844 20.785156 29.03125 20.898438 29.03125 L 21.804688 29.03125 C 21.941406 29.03125 21.804688 28.714844 21.804688 28.578125 L 21.804688 22.207031 C 22.9375 22.089844 23.617188 21.230469 23.617188 20.1875 L 23.617188 18.824219 C 23.617188 17.691406 22.9375 17.011719 21.804688 17.011719 Z M 21.804688 17.011719 " fill-opacity="1" fill-rule="nonzero"/></g></svg>