<svg xmlns="http://www.w3.org/2000/svg" xmlns:xlink="http://www.w3.org/1999/xlink" width="100" zoomAndPan="magnify" viewBox="0 0 75 30.000001" height="40" preserveAspectRatio="xMidYMid meet" version="1.0"><defs><clipPath id="1dedc7e59a"><path d="M 1.210938 13.644531 L 73.789062 13.644531 L 73.789062 17.273438 L 1.210938 17.273438 Z M 1.210938 13.644531 " clip-rule="nonzero"/></clipPath><clipPath id="dc50d30b6b"><path d="M 39.199219 15.390625 L 37.453125 13.644531 L 35.707031 15.390625 L 37.453125 17.136719 Z M 19.238281 14.917969 L 19.007812 15.792969 L 34.976562 16.097656 L 34.386719 15.390625 L 34.976562 14.683594 Z M 55.761719 15.863281 L 55.996094 14.992188 L 40.023438 14.683594 L 40.617188 15.390625 L 40.023438 16.097656 Z M 56.691406 15.003906 L 57.304688 15.015625 L 57.082031 15.84375 L 56.464844 15.851562 Z M 58.003906 15.027344 L 58.613281 15.039062 L 58.40625 15.824219 L 57.785156 15.832031 Z M 59.3125 15.054688 L 59.925781 15.066406 L 59.726562 15.804688 L 59.109375 15.8125 Z M 60.621094 15.078125 L 61.234375 15.089844 L 61.050781 15.785156 L 60.429688 15.792969 Z M 18.308594 15.777344 L 17.695312 15.765625 L 17.917969 14.9375 L 18.535156 14.929688 Z M 61.753906 15.773438 L 73.726562 15.59375 L 73.726562 15.332031 L 61.933594 15.105469 Z M 17 15.753906 L 16.386719 15.742188 L 16.597656 14.960938 L 17.214844 14.949219 Z M 15.6875 15.726562 L 15.078125 15.714844 L 15.273438 14.980469 L 15.890625 14.96875 Z M 14.378906 15.703125 L 13.765625 15.691406 L 13.953125 15 L 14.570312 14.988281 Z M 13.246094 15.007812 L 1.273438 15.1875 L 1.273438 15.453125 L 13.070312 15.679688 Z M 13.246094 15.007812 " clip-rule="evenodd"/></clipPath></defs><g clip-path="url(#1dedc7e59a)"><g clip-path="url(#dc50d30b6b)"><path fill="#0c623b" d="M 1.273438 17.136719 L 73.726562 17.136719 L 73.726562 13.644531 L 1.273438 13.644531 Z M 1.273438 17.136719 " fill-opacity="1" fill-rule="nonzero"/></g></g></svg>